<svg id="Filled_expand" enable-background="new 0 0 512 512" height="512" viewBox="0 0 512 512" width="512" xmlns="https://www.w3.org/2000/svg"><path d="m424 176c0-92.784-75.216-168-168-168s-168 75.216-168 168c0 56.521 27.912 106.522 70.703 136.973l22.733 114.152c1.491 7.485 8.06 12.875 15.692 12.875h117.744c7.632 0 14.201-5.39 15.692-12.875l22.733-114.152c42.791-30.451 70.703-80.452 70.703-136.973z" fill="#fff5d1"/><path d="m296 472h-80c-8.837 0-16-7.163-16-16v-16h112v16c0 8.837-7.163 16-16 16z" fill="#ffd642"/><path d="m296 472h-80c0 17.673 14.327 32 32 32h16c17.673 0 32-14.327 32-32z" fill="#fff5d1"/><path d="m256 208h-48c-26.51 0-48-21.49-48-48v-16h48c26.51 0 48 21.49 48 48z" fill="#bde660"/><path d="m320 112h-24c-27.179 0-49.898 19.468-54.949 45.193 9.207 8.745 14.949 21.105 14.949 34.807h40c30.928 0 56-25.072 56-56v-24h-16z" fill="#bde660"/><path d="m248 336h16v16h-16z"/><path d="m352 104h-16v16h8v16c0 26.467-21.532 48-48 48h-32.56c-1.537-10.882-6.211-20.956-13.589-29.215 5.831-20.382 24.629-34.785 46.149-34.785h24v-16h-24c-26.362 0-49.66 16.215-59.302 39.927-8.397-5.032-18.216-7.927-28.698-7.927h-48c-4.418 0-8 3.582-8 8v16c0 30.878 25.121 56 56 56h40v88h-24v16h64v-16h-24v-104h32c35.29 0 64-28.71 64-64v-24c0-4.418-3.582-8-8-8zm-184 56v-8h40c22.056 0 40 17.944 40 40v8h-40c-22.056 0-40-17.944-40-40z"/><path d="m48 16h16v16h-16z"/><path d="m48 48h16v16h-16z"/><path d="m32 32h16v16h-16z"/><path d="m64 32h16v16h-16z"/><path d="m448 320h16v16h-16z"/><path d="m448 352h16v16h-16z"/><path d="m432 336h16v16h-16z"/><path d="m472 336v16" fill="none" stroke="#000" stroke-linejoin="round" stroke-miterlimit="10" stroke-width="16"/><path d="m256 0c-97.047 0-176 78.953-176 176 0 55.778 26.656 108.47 71.469 141.608l22.121 111.08c1.887 9.472 9.269 16.744 18.41 18.755v8.557c0 10.646 6.969 19.696 16.584 22.828 3.249 18.815 19.687 33.172 39.416 33.172h16c19.729 0 36.167-14.357 39.416-33.172 9.615-3.132 16.584-12.182 16.584-22.828v-8.557c9.141-2.011 16.523-9.284 18.41-18.756l22.121-111.079c44.813-33.138 71.469-85.83 71.469-141.608 0-97.047-78.953-176-176-176zm8 496h-16c-10.43 0-19.327-6.688-22.629-16h61.258c-3.302 9.312-12.199 16-22.629 16zm40-40c0 4.411-3.589 8-8 8h-80c-4.411 0-8-3.589-8-8v-8h96zm44.658-149.545c-1.661 1.183-2.809 2.955-3.207 4.956l-14.455 72.589h-106.996v16h103.809l-5.091 25.562c-.743 3.73-4.043 6.438-7.847 6.438h-117.743c-3.804 0-7.104-2.708-7.847-6.438l-5.09-25.562h23.809v-16h-26.996l-14.456-72.589c-.398-2-1.546-3.773-3.207-4.956-42.166-30.007-67.341-78.775-67.341-130.455 0-88.224 71.775-160 160-160s160 71.776 160 160c0 51.68-25.175 100.448-67.342 130.455z"/><path d="m271.071 48.877c-4.965-.582-10.036-.877-15.071-.877v-16c5.655 0 11.354.332 16.935.986z"/><path d="m143.025 115.771-14.111-7.54c22.248-41.641 63.429-69.771 110.159-75.246l1.861 15.892c-41.527 4.865-78.128 29.872-97.909 66.894z"/><path d="m192 304h16v16h-16z"/><path d="m304 304h16v16h-16z"/></svg>